<?xml version="1.0" encoding="utf-8"?>
<!-- created with bpmn-js / http://bpmn.io -->
<!DOCTYPE svg PUBLIC "-//W3C//DTD SVG 1.1//EN" "http://www.w3.org/Graphics/SVG/1.1/DTD/svg11.dtd">
<svg xmlns="http://www.w3.org/2000/svg" xmlns:xlink="http://www.w3.org/1999/xlink" width="860" height="1390" viewBox="125 75 860 1390" version="1.1"><defs><pattern id="djs-grid-pattern-518808" width="10" height="10" patternUnits="userSpaceOnUse"><circle cx="0.5" cy="0.5" r="0.5" style="fill: rgb(204, 204, 204);"/></pattern></defs><g class="djs-group"><g class="djs-element djs-shape" data-element-id="Participant_056agwk" style="display: block;" transform="matrix(1 0 0 1 130 80)"><g class="djs-visual"><rect x="0" y="0" width="850" height="670" rx="0" ry="0" style="stroke-linecap: round; stroke-linejoin: round; stroke: rgb(34, 36, 42); stroke-width: 1.5px; fill: white; fill-opacity: 0.95;"/><path style="fill: none; stroke-linecap: round; stroke-linejoin: round; stroke: rgb(34, 36, 42); stroke-width: 1.5px;" d="M30,0L30,670"/><text lineHeight="1.2" class="djs-label" style="font-family: Arial, sans-serif; font-size: 12px; font-weight: normal; fill: rgb(34, 36, 42);" transform="matrix(-1.83697e-16 -1 1 -1.83697e-16 0 670)"><tspan x="304.47837257385254" y="18.6">Użytkownik</tspan></text></g><rect class="djs-hit djs-hit-no-move" x="0" y="0" width="850" height="670" style="fill: none; stroke-opacity: 0; stroke: white; stroke-width: 15px;"/><rect class="djs-hit djs-hit-click-stroke" x="0" y="0" width="850" height="670" style="fill: none; stroke-opacity: 0; stroke: white; stroke-width: 15px;"/><rect class="djs-hit djs-hit-all" x="0" y="0" width="30" height="670" style="fill: none; stroke-opacity: 0; stroke: white; stroke-width: 15px;"/><rect x="-5" y="-5" rx="4" width="860" height="680" class="djs-outline" style="fill: none;"/></g><g class="djs-children"><g class="djs-group"><g class="djs-element djs-shape" data-element-id="Event_11h5naa" style="display: block;" transform="matrix(1 0 0 1 192 402)"><g class="djs-visual"><circle cx="18" cy="18" r="18" style="stroke-linecap: round; stroke-linejoin: round; stroke: rgb(34, 36, 42); stroke-width: 2px; fill: white; fill-opacity: 0.95;"/></g><rect class="djs-hit djs-hit-all" x="0" y="0" width="36" height="36" style="fill: none; stroke-opacity: 0; stroke: white; stroke-width: 15px;"/><circle cx="18" cy="18" r="23" class="djs-outline" style="fill: none;"/></g></g><g class="djs-group"><g class="djs-element djs-shape" data-element-id="Event_11h5naa_label" style="display: block;" transform="matrix(1 0 0 1 184 445)"><g class="djs-visual"><text lineHeight="1.2" class="djs-label" style="font-family: Arial, sans-serif; font-size: 11px; font-weight: normal; fill: rgb(34, 36, 42);"><tspan x="0.2901039123535156" y="9.899999999999999">Przeglądaj </tspan><tspan x="0" y="23.099999999999998">ogłoszenie</tspan></text></g><rect class="djs-hit djs-hit-all" x="0" y="0" width="53" height="27" style="fill: none; stroke-opacity: 0; stroke: white; stroke-width: 15px;"/><rect x="-5" y="-5" rx="4" width="63" height="37" class="djs-outline" style="fill: none;"/></g></g><g class="djs-group"><g class="djs-element djs-shape" data-element-id="Activity_0bpx0ua" style="display: block;" transform="matrix(1 0 0 1 280 380)"><g class="djs-visual"><rect x="0" y="0" width="100" height="80" rx="10" ry="10" style="stroke-linecap: round; stroke-linejoin: round; stroke: rgb(34, 36, 42); stroke-width: 2px; fill: white; fill-opacity: 0.95;"/><text lineHeight="1.2" class="djs-label" style="font-family: Arial, sans-serif; font-size: 12px; font-weight: normal; fill: rgb(34, 36, 42);"><tspan x="28.657511591911316" y="22">Wybierz </tspan><tspan x="21.306819915771484" y="36.4">ogłoszenie </tspan><tspan x="25.98721694946289" y="50.8">które Cię </tspan><tspan x="23.984375" y="65.19999999999999">interesuje</tspan></text></g><rect class="djs-hit djs-hit-all" x="0" y="0" width="100" height="80" style="fill: none; stroke-opacity: 0; stroke: white; stroke-width: 15px;"/><rect x="-5" y="-5" rx="14" width="110" height="90" class="djs-outline" style="fill: none;"/></g></g><g class="djs-group"><g class="djs-element djs-shape" data-element-id="DataObjectReference_0ccz350" style="display: block;" transform="matrix(1 0 0 1 442 635)"><g class="djs-visual"><path d="m 0,0 28.23529411764706,0 7.058823529411765,8.196721311475411 0,40.98360655737705 -35.294117647058826,0 0,-49.18032786885246 28.23529411764706,0 0,8.196721311475411 7.058823529411765,0" style="fill: white; stroke-linecap: round; stroke-linejoin: round; stroke: rgb(34, 36, 42); stroke-width: 2px; fill-opacity: 0.95;"/></g><rect class="djs-hit djs-hit-all" x="0" y="0" width="36" height="50" style="fill: none; stroke-opacity: 0; stroke: white; stroke-width: 15px;"/><path d="M44.7648 11.3263L36.9892 2.64074C36.0451 1.58628 34.5651 0.988708 33.1904 0.988708H5.98667C3.22688 0.988708 0.989624 3.34892 0.989624 6.26039V55.0235C0.989624 57.9349 3.22688 60.2952 5.98667 60.2952H40.966C43.7257 60.2952 45.963 57.9349 45.963 55.0235V14.9459C45.963 13.5998 45.6407 12.3048 44.7648 11.3263Z" transform="translate(-6, -6)" class="djs-outline" style="stroke-width: 2px; fill: none;"/></g></g><g class="djs-group"><g class="djs-element djs-shape" data-element-id="DataObjectReference_0ccz350_label" style="display: block;" transform="matrix(1 0 0 1 436 611)"><g class="djs-visual"><text lineHeight="1.2" class="djs-label" style="font-family: Arial, sans-serif; font-size: 11px; font-weight: normal; fill: rgb(34, 36, 42);"><tspan x="0" y="9.899999999999999">Listing_id</tspan></text></g><rect class="djs-hit djs-hit-all" x="0" y="0" width="47" height="14" style="fill: none; stroke-opacity: 0; stroke: white; stroke-width: 15px;"/><rect x="-5" y="-5" rx="4" width="57" height="24" class="djs-outline" style="fill: none;"/></g></g><g class="djs-group"><g class="djs-element djs-shape" data-element-id="Event_1xzxnzc" style="display: block;" transform="matrix(1 0 0 1 512 402)"><g class="djs-visual"><circle cx="18" cy="18" r="18" style="stroke-linecap: round; stroke-linejoin: round; stroke: rgb(34, 36, 42); stroke-width: 1.5px; fill: white; fill-opacity: 0.95;"/><circle cx="18" cy="18" r="15" style="stroke-linecap: round; stroke-linejoin: round; stroke: rgb(34, 36, 42); stroke-width: 1.5px; fill: none;"/><path d="m 8.459999999999999,11.34 l 0,12.6 l 18.900000000000002,0 l 0,-12.6 z l 9.450000000000001,5.4 l 9.450000000000001,-5.4" style="fill: white; stroke-linecap: round; stroke-linejoin: round; stroke: rgb(34, 36, 42); stroke-width: 1px;"/></g><rect class="djs-hit djs-hit-all" x="0" y="0" width="36" height="36" style="fill: none; stroke-opacity: 0; stroke: white; stroke-width: 15px;"/><circle cx="18" cy="18" r="23" class="djs-outline" style="fill: none;"/></g></g><g class="djs-group"><g class="djs-element djs-shape" data-element-id="Event_1xzxnzc_label" style="display: block;" transform="matrix(1 0 0 1 504 365)"><g class="djs-visual"><text lineHeight="1.2" class="djs-label" style="font-family: Arial, sans-serif; font-size: 11px; font-weight: normal; fill: rgb(34, 36, 42);"><tspan x="1.7194995880126953" y="9.899999999999999">Czekaj na </tspan><tspan x="0" y="23.099999999999998">odpowiedź</tspan></text></g><rect class="djs-hit djs-hit-all" x="0" y="0" width="53" height="27" style="fill: none; stroke-opacity: 0; stroke: white; stroke-width: 15px;"/><rect x="-5" y="-5" rx="4" width="63" height="37" class="djs-outline" style="fill: none;"/></g></g><g class="djs-group"><g class="djs-element djs-shape" data-element-id="Activity_1auxxje" style="display: block;" transform="matrix(1 0 0 1 680 380)"><g class="djs-visual"><rect x="0" y="0" width="100" height="80" rx="10" ry="10" style="stroke-linecap: round; stroke-linejoin: round; stroke: rgb(34, 36, 42); stroke-width: 2px; fill: white; fill-opacity: 0.95;"/><text lineHeight="1.2" class="djs-label" style="font-family: Arial, sans-serif; font-size: 12px; font-weight: normal; fill: rgb(34, 36, 42);"><tspan x="21.618820190429688" y="36.4">Przeglądaj </tspan><tspan x="21.306819915771484" y="50.8">ogłoszenie</tspan></text></g><rect class="djs-hit djs-hit-all" x="0" y="0" width="100" height="80" style="fill: none; stroke-opacity: 0; stroke: white; stroke-width: 15px;"/><rect x="-5" y="-5" rx="14" width="110" height="90" class="djs-outline" style="fill: none;"/></g></g><g class="djs-group"><g class="djs-element djs-shape" data-element-id="Event_0kw7cmx" style="display: block;" transform="matrix(1 0 0 1 912 402)"><g class="djs-visual"><circle cx="18" cy="18" r="18" style="stroke-linecap: round; stroke-linejoin: round; stroke: rgb(34, 36, 42); stroke-width: 4px; fill: white; fill-opacity: 0.95;"/></g><rect class="djs-hit djs-hit-all" x="0" y="0" width="36" height="36" style="fill: none; stroke-opacity: 0; stroke: white; stroke-width: 15px;"/><circle cx="18" cy="18" r="24" class="djs-outline" style="fill: none;"/></g></g><g class="djs-group"><g class="djs-element djs-shape" data-element-id="Activity_0b9mk4v" style="display: block;" transform="matrix(1 0 0 1 470 270)"><g class="djs-visual"><rect x="0" y="0" width="100" height="80" rx="10" ry="10" style="stroke-linecap: round; stroke-linejoin: round; stroke: rgb(34, 36, 42); stroke-width: 2px; fill: white; fill-opacity: 0.95;"/><text lineHeight="1.2" class="djs-label" style="font-family: Arial, sans-serif; font-size: 12px; font-weight: normal; fill: rgb(34, 36, 42);"><tspan x="14.97159194946289" y="36.4">Przeglądanie </tspan><tspan x="25.980113983154297" y="50.8">ogłoszeń</tspan></text><rect x="0" y="0" width="14" height="14" rx="0" ry="0" style="stroke-linecap: round; stroke-linejoin: round; stroke: rgb(34, 36, 42); stroke-width: 1px; fill: white;" transform="matrix(1 0 0 1 42.5 60)"/><path data-marker="sub-process" d="m42.5,60 m 7,2 l 0,10 m -5,-5 l 10,0" style="fill: white; stroke-linecap: round; stroke-linejoin: round; stroke: rgb(34, 36, 42); stroke-width: 2px;"/></g><rect class="djs-hit djs-hit-all" x="0" y="0" width="100" height="80" style="fill: none; stroke-opacity: 0; stroke: white; stroke-width: 15px;"/><rect x="-5" y="-5" rx="14" width="110" height="90" class="djs-outline" style="fill: none;"/></g></g><g class="djs-group"><g class="djs-element djs-shape" data-element-id="Event_0abv7py" style="display: block;" transform="matrix(1 0 0 1 692 362)"><g class="djs-visual"><circle cx="18" cy="18" r="18" style="stroke-linecap: round; stroke-linejoin: round; stroke: rgb(34, 36, 42); stroke-width: 1.5px; fill: white; fill-opacity: 1;"/><circle cx="18" cy="18" r="15" style="stroke-linecap: round; stroke-linejoin: round; stroke: rgb(34, 36, 42); stroke-width: 1.5px; fill: none; fill-opacity: 1;"/></g><rect class="djs-hit djs-hit-all" x="0" y="0" width="36" height="36" style="fill: none; stroke-opacity: 0; stroke: white; stroke-width: 15px;"/><circle cx="18" cy="18" r="23" class="djs-outline" style="fill: none;"/></g></g><g class="djs-group"><g class="djs-element djs-shape" data-element-id="Event_0abv7py_label" style="display: block;" transform="matrix(1 0 0 1 712 332)"><g class="djs-visual"><text lineHeight="1.2" class="djs-label" style="font-family: Arial, sans-serif; font-size: 11px; font-weight: normal; fill: rgb(34, 36, 42);"><tspan x="0" y="9.899999999999999">Przeglądaj inne </tspan><tspan x="11.617660522460938" y="23.099999999999998">ogłoszenie</tspan></text></g><rect class="djs-hit djs-hit-all" x="0" y="0" width="77" height="27" style="fill: none; stroke-opacity: 0; stroke: white; stroke-width: 15px;"/><rect x="-5" y="-5" rx="4" width="87" height="37" class="djs-outline" style="fill: none;"/></g></g><g class="djs-group"><g class="djs-element djs-connection" data-element-id="Flow_120lmrg" style="display: block;"><g class="djs-visual"><defs><marker id="marker-5sqmmzuq0t6wcnj69pcbfei26" viewBox="0 0 20 20" refX="11" refY="10" markerWidth="10" markerHeight="10" orient="auto"><path d="M 1 5 L 11 10 L 1 15 Z" style="stroke-linecap: round; stroke-linejoin: round; stroke: rgb(34, 36, 42); stroke-width: 1px; fill: rgb(34, 36, 42);"/></marker></defs><path data-corner-radius="5" style="fill: none; stroke-linecap: round; stroke-linejoin: round; stroke: rgb(34, 36, 42); stroke-width: 2px; marker-end: url('#marker-5sqmmzuq0t6wcnj69pcbfei26');" d="M228,420L280,420"/></g><path d="M228,420L280,420" class="djs-hit djs-hit-stroke" style="fill: none; stroke-opacity: 0; stroke: white; stroke-width: 15px;"/><rect x="223" y="415" rx="4" width="62" height="10" class="djs-outline" style="fill: none;"/></g></g><g class="djs-group"><g class="djs-element djs-connection" data-element-id="Flow_0t5t9g6" style="display: block;"><g class="djs-visual"><defs><marker id="marker-bivgz3b9c0un7pylyrsjqy823" viewBox="0 0 20 20" refX="11" refY="10" markerWidth="10" markerHeight="10" orient="auto"><path d="M 1 5 L 11 10 L 1 15 Z" style="stroke-linecap: round; stroke-linejoin: round; stroke: rgb(34, 36, 42); stroke-width: 1px; fill: rgb(34, 36, 42);"/></marker></defs><path data-corner-radius="5" style="fill: none; stroke-linecap: round; stroke-linejoin: round; stroke: rgb(34, 36, 42); stroke-width: 2px; marker-end: url('#marker-bivgz3b9c0un7pylyrsjqy823');" d="M470,310L335,310C332.5,310,330,312.5,330,315L330,380"/></g><path d="M470,310L330,310L330,380" class="djs-hit djs-hit-stroke" style="fill: none; stroke-opacity: 0; stroke: white; stroke-width: 15px;"/><rect x="325" y="305" rx="4" width="150" height="80" class="djs-outline" style="fill: none;"/></g></g><g class="djs-group"><g class="djs-element djs-connection" data-element-id="Flow_13w81kb" style="display: block;"><g class="djs-visual"><defs><marker id="marker-3b78eazsk9flistk00nsnyzio" viewBox="0 0 20 20" refX="11" refY="10" markerWidth="10" markerHeight="10" orient="auto"><path d="M 1 5 L 11 10 L 1 15 Z" style="stroke-linecap: round; stroke-linejoin: round; stroke: rgb(34, 36, 42); stroke-width: 1px; fill: rgb(34, 36, 42);"/></marker></defs><path data-corner-radius="5" style="fill: none; stroke-linecap: round; stroke-linejoin: round; stroke: rgb(34, 36, 42); stroke-width: 2px; marker-end: url('#marker-3b78eazsk9flistk00nsnyzio');" d="M380,420L512,420"/></g><path d="M380,420L512,420" class="djs-hit djs-hit-stroke" style="fill: none; stroke-opacity: 0; stroke: white; stroke-width: 15px;"/><rect x="375" y="415" rx="4" width="142" height="10" class="djs-outline" style="fill: none;"/></g></g><g class="djs-group"><g class="djs-element djs-connection" data-element-id="Flow_1aiurtn" style="display: block;"><g class="djs-visual"><defs><marker id="marker-3hnsbf2uqasholkajpm2e6clr" viewBox="0 0 20 20" refX="11" refY="10" markerWidth="10" markerHeight="10" orient="auto"><path d="M 1 5 L 11 10 L 1 15 Z" style="stroke-linecap: round; stroke-linejoin: round; stroke: rgb(34, 36, 42); stroke-width: 1px; fill: rgb(34, 36, 42);"/></marker></defs><path data-corner-radius="5" style="fill: none; stroke-linecap: round; stroke-linejoin: round; stroke: rgb(34, 36, 42); stroke-width: 2px; marker-end: url('#marker-3hnsbf2uqasholkajpm2e6clr');" d="M548,420L680,420"/></g><path d="M548,420L680,420" class="djs-hit djs-hit-stroke" style="fill: none; stroke-opacity: 0; stroke: white; stroke-width: 15px;"/><rect x="543" y="415" rx="4" width="142" height="10" class="djs-outline" style="fill: none;"/></g></g><g class="djs-group"><g class="djs-element djs-connection" data-element-id="Flow_1k0emgy" style="display: block;"><g class="djs-visual"><defs><marker id="marker-4l9ezc4pdk34eqhn2jh5ljm6s" viewBox="0 0 20 20" refX="11" refY="10" markerWidth="10" markerHeight="10" orient="auto"><path d="M 1 5 L 11 10 L 1 15 Z" style="stroke-linecap: round; stroke-linejoin: round; stroke: rgb(34, 36, 42); stroke-width: 1px; fill: rgb(34, 36, 42);"/></marker></defs><path data-corner-radius="5" style="fill: none; stroke-linecap: round; stroke-linejoin: round; stroke: rgb(34, 36, 42); stroke-width: 2px; marker-end: url('#marker-4l9ezc4pdk34eqhn2jh5ljm6s');" d="M780,420L912,420"/></g><path d="M780,420L912,420" class="djs-hit djs-hit-stroke" style="fill: none; stroke-opacity: 0; stroke: white; stroke-width: 15px;"/><rect x="775" y="415" rx="4" width="142" height="10" class="djs-outline" style="fill: none;"/></g></g><g class="djs-group"><g class="djs-element djs-connection" data-element-id="Flow_04phsls" style="display: block;"><g class="djs-visual"><defs><marker id="marker-cf61iujwu3r1zs8y84fglvf1u" viewBox="0 0 20 20" refX="11" refY="10" markerWidth="10" markerHeight="10" orient="auto"><path d="M 1 5 L 11 10 L 1 15 Z" style="stroke-linecap: round; stroke-linejoin: round; stroke: rgb(34, 36, 42); stroke-width: 1px; fill: rgb(34, 36, 42);"/></marker></defs><path data-corner-radius="5" style="fill: none; stroke-linecap: round; stroke-linejoin: round; stroke: rgb(34, 36, 42); stroke-width: 2px; marker-end: url('#marker-cf61iujwu3r1zs8y84fglvf1u');" d="M710,362L710,315C710,312.5,707.5,310,705,310L570,310"/></g><path d="M710,362L710,310L570,310" class="djs-hit djs-hit-stroke" style="fill: none; stroke-opacity: 0; stroke: white; stroke-width: 15px;"/><rect x="565" y="305" rx="4" width="150" height="62" class="djs-outline" style="fill: none;"/></g></g></g></g><g class="djs-group"><g class="djs-element djs-shape" data-element-id="Participant_03f4uyn" style="display: block;" transform="matrix(1 0 0 1 200 790)"><g class="djs-visual"><rect x="0" y="0" width="730" height="670" rx="0" ry="0" style="stroke-linecap: round; stroke-linejoin: round; stroke: rgb(34, 36, 42); stroke-width: 1.5px; fill: white; fill-opacity: 0.95;"/><path style="fill: none; stroke-linecap: round; stroke-linejoin: round; stroke: rgb(34, 36, 42); stroke-width: 1.5px;" d="M30,0L30,670"/><text lineHeight="1.2" class="djs-label" style="font-family: Arial, sans-serif; font-size: 12px; font-weight: normal; fill: rgb(34, 36, 42);" transform="matrix(-1.83697e-16 -1 1 -1.83697e-16 0 670)"><tspan x="315.720458984375" y="18.6">Serwer</tspan></text></g><rect class="djs-hit djs-hit-no-move" x="0" y="0" width="730" height="670" style="fill: none; stroke-opacity: 0; stroke: white; stroke-width: 15px;"/><rect class="djs-hit djs-hit-click-stroke" x="0" y="0" width="730" height="670" style="fill: none; stroke-opacity: 0; stroke: white; stroke-width: 15px;"/><rect class="djs-hit djs-hit-all" x="0" y="0" width="30" height="670" style="fill: none; stroke-opacity: 0; stroke: white; stroke-width: 15px;"/><rect x="-5" y="-5" rx="4" width="740" height="680" class="djs-outline" style="fill: none;"/></g><g class="djs-children"><g class="djs-group"><g class="djs-element djs-shape" data-element-id="Lane_0wd8emy" style="display: block;" transform="matrix(1 0 0 1 230 1125)"><g class="djs-visual"><rect x="0" y="0" width="700" height="335" rx="0" ry="0" style="stroke-linecap: round; stroke-linejoin: round; stroke: rgb(34, 36, 42); stroke-width: 1.5px; fill: white; fill-opacity: 0.25;"/><text lineHeight="1.2" class="djs-label" style="font-family: Arial, sans-serif; font-size: 12px; font-weight: normal; fill: rgb(34, 36, 42);" transform="matrix(-1.83697e-16 -1 1 -1.83697e-16 0 335)"><tspan x="144.1477279663086" y="18.6">Backend</tspan></text></g><rect class="djs-hit djs-hit-no-move" x="0" y="0" width="700" height="335" style="fill: none; stroke-opacity: 0; stroke: white; stroke-width: 15px;"/><rect class="djs-hit djs-hit-click-stroke" x="0" y="0" width="700" height="335" style="fill: none; stroke-opacity: 0; stroke: white; stroke-width: 15px;"/><rect class="djs-hit djs-hit-all" x="0" y="0" width="30" height="335" style="fill: none; stroke-opacity: 0; stroke: white; stroke-width: 15px;"/><rect x="-5" y="-5" rx="4" width="710" height="345" class="djs-outline" style="fill: none;"/></g></g><g class="djs-group"><g class="djs-element djs-shape" data-element-id="Lane_00okb93" style="display: block;" transform="matrix(1 0 0 1 230 790)"><g class="djs-visual"><rect x="0" y="0" width="700" height="335" rx="0" ry="0" style="stroke-linecap: round; stroke-linejoin: round; stroke: rgb(34, 36, 42); stroke-width: 1.5px; fill: white; fill-opacity: 0.25;"/><text lineHeight="1.2" class="djs-label" style="font-family: Arial, sans-serif; font-size: 12px; font-weight: normal; fill: rgb(34, 36, 42);" transform="matrix(-1.83697e-16 -1 1 -1.83697e-16 0 335)"><tspan x="143.4801139831543" y="18.6">Frontend</tspan></text></g><rect class="djs-hit djs-hit-no-move" x="0" y="0" width="700" height="335" style="fill: none; stroke-opacity: 0; stroke: white; stroke-width: 15px;"/><rect class="djs-hit djs-hit-click-stroke" x="0" y="0" width="700" height="335" style="fill: none; stroke-opacity: 0; stroke: white; stroke-width: 15px;"/><rect class="djs-hit djs-hit-all" x="0" y="0" width="30" height="335" style="fill: none; stroke-opacity: 0; stroke: white; stroke-width: 15px;"/><rect x="-5" y="-5" rx="4" width="710" height="345" class="djs-outline" style="fill: none;"/></g></g><g class="djs-group"><g class="djs-element djs-shape" data-element-id="Event_14r4rfi" style="display: block;" transform="matrix(1 0 0 1 292 942)"><g class="djs-visual"><circle cx="18" cy="18" r="18" style="stroke-linecap: round; stroke-linejoin: round; stroke: rgb(34, 36, 42); stroke-width: 2px; fill: white; fill-opacity: 0.95;"/><path d="m 8.459999999999999,11.34 l 0,12.6 l 18.900000000000002,0 l 0,-12.6 z l 9.450000000000001,5.4 l 9.450000000000001,-5.4" style="fill: white; stroke-linecap: round; stroke-linejoin: round; stroke: rgb(34, 36, 42); stroke-width: 1px;"/></g><rect class="djs-hit djs-hit-all" x="0" y="0" width="36" height="36" style="fill: none; stroke-opacity: 0; stroke: white; stroke-width: 15px;"/><circle cx="18" cy="18" r="23" class="djs-outline" style="fill: none;"/></g></g><g class="djs-group"><g class="djs-element djs-shape" data-element-id="Event_14r4rfi_label" style="display: block;" transform="matrix(1 0 0 1 268 985)"><g class="djs-visual"><text lineHeight="1.2" class="djs-label" style="font-family: Arial, sans-serif; font-size: 11px; font-weight: normal; fill: rgb(34, 36, 42);"><tspan x="0" y="9.899999999999999">Czekaj na sygnał </tspan><tspan x="14.695211410522461" y="23.099999999999998">od serwera</tspan></text></g><rect class="djs-hit djs-hit-all" x="0" y="0" width="85" height="27" style="fill: none; stroke-opacity: 0; stroke: white; stroke-width: 15px;"/><rect x="-5" y="-5" rx="4" width="95" height="37" class="djs-outline" style="fill: none;"/></g></g><g class="djs-group"><g class="djs-element djs-shape" data-element-id="Activity_104afvk" style="display: block;" transform="matrix(1 0 0 1 410 1260)"><g class="djs-visual"><rect x="0" y="0" width="100" height="80" rx="10" ry="10" style="stroke-linecap: round; stroke-linejoin: round; stroke: rgb(34, 36, 42); stroke-width: 2px; fill: white; fill-opacity: 0.95;"/><text lineHeight="1.2" class="djs-label" style="font-family: Arial, sans-serif; font-size: 12px; font-weight: normal; fill: rgb(34, 36, 42);"><tspan x="24.806755900382996" y="22">Wyszukaj </tspan><tspan x="19.31818199157715" y="36.4">informacji o </tspan><tspan x="15.100093841552734" y="50.8">ogłoszeniu w </tspan><tspan x="14.637786865234375" y="65.19999999999999">bazie danych</tspan></text></g><rect class="djs-hit djs-hit-all" x="0" y="0" width="100" height="80" style="fill: none; stroke-opacity: 0; stroke: white; stroke-width: 15px;"/><rect x="-5" y="-5" rx="14" width="110" height="90" class="djs-outline" style="fill: none;"/></g></g><g class="djs-group"><g class="djs-element djs-shape" data-element-id="DataStoreReference_0jwx17b" style="display: block;" transform="matrix(1 0 0 1 565 1385)"><g class="djs-visual"><path d="m  0,6.65 l  0,36.885245901639344 c  1.639344262295082,8.196721311475411 47.540983606557376,8.196721311475411  49.18032786885246,0 l  0,-36.885245901639344 c -1.639344262295082,-8.196721311475411 -47.540983606557376,-8.196721311475411 -49.18032786885246,0c  1.639344262295082,8.196721311475411 47.540983606557376,8.196721311475411  49.18032786885246,0 m  -49.18032786885246,5.737704918032787c  1.639344262295082,8.196721311475411 47.540983606557376,8.196721311475411 49.18032786885246,0m  -49.18032786885246,5.737704918032787c  1.639344262295082,8.196721311475411 47.540983606557376,8.196721311475411  49.18032786885246,0" style="fill: white; stroke-linecap: round; stroke-linejoin: round; stroke: rgb(34, 36, 42); stroke-width: 2px; fill-opacity: 0.95;"/></g><rect class="djs-hit djs-hit-all" x="0" y="0" width="50" height="50" style="fill: none; stroke-opacity: 0; stroke: white; stroke-width: 15px;"/><path d="M1.03845 48.1347C1.03845 49.3511 1.07295 50.758 1.38342 52.064C1.69949 53.3938 2.32428 54.7154 3.56383 55.6428C6.02533 57.4841 10.1161 58.7685 14.8212 59.6067C19.5772 60.4538 25.1388 60.8738 30.6831 60.8738C36.2276 60.8738 41.7891 60.4538 46.545 59.6067C51.2504 58.7687 55.3412 57.4842 57.8028 55.6429C59.0424 54.7156 59.6673 53.3938 59.9834 52.064C60.2938 50.7579 60.3285 49.351 60.3285 48.1344V13.8415C60.3285 12.6249 60.2938 11.218 59.9834 9.91171C59.6673 8.58194 59.0423 7.2602 57.8027 6.33294C55.341 4.49168 51.2503 3.20723 46.545 2.36914C41.7891 1.522 36.2276 1.10204 30.6831 1.10205C25.1388 1.10206 19.5772 1.52206 14.8213 2.36923C10.1162 3.20734 6.02543 4.49183 3.5639 6.33314C2.32433 7.26038 1.69951 8.58206 1.38343 9.91181C1.07295 11.2179 1.03845 12.6247 1.03845 13.8411V48.1347Z" transform="translate(-6, -6)" class="djs-outline" style="stroke-width: 2px; fill: none;"/></g></g><g class="djs-group"><g class="djs-element djs-shape" data-element-id="DataStoreReference_0jwx17b_label" style="display: block;" transform="matrix(1 0 0 1 547 1442)"><g class="djs-visual"><text lineHeight="1.2" class="djs-label" style="font-family: Arial, sans-serif; font-size: 11px; font-weight: normal; fill: rgb(34, 36, 42);"><tspan x="0" y="9.899999999999999">listing table group</tspan></text></g><rect class="djs-hit djs-hit-all" x="0" y="0" width="87" height="14" style="fill: none; stroke-opacity: 0; stroke: white; stroke-width: 15px;"/><rect x="-5" y="-5" rx="4" width="97" height="24" class="djs-outline" style="fill: none;"/></g></g><g class="djs-group"><g class="djs-element djs-shape" data-element-id="DataObjectReference_1nvy7uy" style="display: block;" transform="matrix(1 0 0 1 542 1175)"><g class="djs-visual"><path d="m 0,0 28.23529411764706,0 7.058823529411765,8.196721311475411 0,40.98360655737705 -35.294117647058826,0 0,-49.18032786885246 28.23529411764706,0 0,8.196721311475411 7.058823529411765,0" style="fill: white; stroke-linecap: round; stroke-linejoin: round; stroke: rgb(34, 36, 42); stroke-width: 2px; fill-opacity: 0.95;"/></g><rect class="djs-hit djs-hit-all" x="0" y="0" width="36" height="50" style="fill: none; stroke-opacity: 0; stroke: white; stroke-width: 15px;"/><path d="M44.7648 11.3263L36.9892 2.64074C36.0451 1.58628 34.5651 0.988708 33.1904 0.988708H5.98667C3.22688 0.988708 0.989624 3.34892 0.989624 6.26039V55.0235C0.989624 57.9349 3.22688 60.2952 5.98667 60.2952H40.966C43.7257 60.2952 45.963 57.9349 45.963 55.0235V14.9459C45.963 13.5998 45.6407 12.3048 44.7648 11.3263Z" transform="translate(-6, -6)" class="djs-outline" style="stroke-width: 2px; fill: none;"/></g></g><g class="djs-group"><g class="djs-element djs-shape" data-element-id="DataObjectReference_1nvy7uy_label" style="display: block;" transform="matrix(1 0 0 1 534 1232)"><g class="djs-visual"><text lineHeight="1.2" class="djs-label" style="font-family: Arial, sans-serif; font-size: 11px; font-weight: normal; fill: rgb(34, 36, 42);"><tspan x="0" y="9.899999999999999">listing data</tspan></text></g><rect class="djs-hit djs-hit-all" x="0" y="0" width="53" height="14" style="fill: none; stroke-opacity: 0; stroke: white; stroke-width: 15px;"/><rect x="-5" y="-5" rx="4" width="63" height="24" class="djs-outline" style="fill: none;"/></g></g><g class="djs-group"><g class="djs-element djs-shape" data-element-id="Event_07lp6yw" style="display: block;" transform="matrix(1 0 0 1 292 1402)"><g class="djs-visual"><circle cx="18" cy="18" r="18" style="stroke-linecap: round; stroke-linejoin: round; stroke: rgb(34, 36, 42); stroke-width: 4px; fill: white; fill-opacity: 0.95;"/><path d="m 7.2,25.991999999999997 0.09350000000000001,-0.025300000000000003 7.3392,-9.610700000000001 7.667000000000001,8.9661 4.7003,-18.2204 -5.8707,11.6501 -7.299600000000001,-9.585400000000002 z" style="fill: rgb(34, 36, 42); stroke-linecap: round; stroke-linejoin: round; stroke: rgb(34, 36, 42); stroke-width: 1px;"/></g><rect class="djs-hit djs-hit-all" x="0" y="0" width="36" height="36" style="fill: none; stroke-opacity: 0; stroke: white; stroke-width: 15px;"/><circle cx="18" cy="18" r="24" class="djs-outline" style="fill: none;"/></g></g><g class="djs-group"><g class="djs-element djs-shape" data-element-id="Activity_0tuchwn" style="display: block;" transform="matrix(1 0 0 1 610 920)"><g class="djs-visual"><rect x="0" y="0" width="100" height="80" rx="10" ry="10" style="stroke-linecap: round; stroke-linejoin: round; stroke: rgb(34, 36, 42); stroke-width: 2px; fill: white; fill-opacity: 0.95;"/><text lineHeight="1.2" class="djs-label" style="font-family: Arial, sans-serif; font-size: 12px; font-weight: normal; fill: rgb(34, 36, 42);"><tspan x="21.797972559928894" y="36.4">Wygeneruj </tspan><tspan x="21.130712509155273" y="50.8">odpowiedź</tspan></text></g><rect class="djs-hit djs-hit-all" x="0" y="0" width="100" height="80" style="fill: none; stroke-opacity: 0; stroke: white; stroke-width: 15px;"/><rect x="-5" y="-5" rx="14" width="110" height="90" class="djs-outline" style="fill: none;"/></g></g><g class="djs-group"><g class="djs-element djs-shape" data-element-id="DataObjectReference_1gt15ci" style="display: block;" transform="matrix(1 0 0 1 702 815)"><g class="djs-visual"><path d="m 0,0 28.23529411764706,0 7.058823529411765,8.196721311475411 0,40.98360655737705 -35.294117647058826,0 0,-49.18032786885246 28.23529411764706,0 0,8.196721311475411 7.058823529411765,0" style="fill: white; stroke-linecap: round; stroke-linejoin: round; stroke: rgb(34, 36, 42); stroke-width: 2px; fill-opacity: 0.95;"/></g><rect class="djs-hit djs-hit-all" x="0" y="0" width="36" height="50" style="fill: none; stroke-opacity: 0; stroke: white; stroke-width: 15px;"/><path d="M44.7648 11.3263L36.9892 2.64074C36.0451 1.58628 34.5651 0.988708 33.1904 0.988708H5.98667C3.22688 0.988708 0.989624 3.34892 0.989624 6.26039V55.0235C0.989624 57.9349 3.22688 60.2952 5.98667 60.2952H40.966C43.7257 60.2952 45.963 57.9349 45.963 55.0235V14.9459C45.963 13.5998 45.6407 12.3048 44.7648 11.3263Z" transform="translate(-6, -6)" class="djs-outline" style="stroke-width: 2px; fill: none;"/></g></g><g class="djs-group"><g class="djs-element djs-shape" data-element-id="DataObjectReference_1gt15ci_label" style="display: block;" transform="matrix(1 0 0 1 693 872)"><g class="djs-visual"><text lineHeight="1.2" class="djs-label" style="font-family: Arial, sans-serif; font-size: 11px; font-weight: normal; fill: rgb(34, 36, 42);"><tspan x="0" y="9.899999999999999">listing view</tspan></text></g><rect class="djs-hit djs-hit-all" x="0" y="0" width="54" height="14" style="fill: none; stroke-opacity: 0; stroke: white; stroke-width: 15px;"/><rect x="-5" y="-5" rx="4" width="64" height="24" class="djs-outline" style="fill: none;"/></g></g><g class="djs-group"><g class="djs-element djs-shape" data-element-id="Event_09452rb" style="display: block;" transform="matrix(1 0 0 1 812 942)"><g class="djs-visual"><circle cx="18" cy="18" r="18" style="stroke-linecap: round; stroke-linejoin: round; stroke: rgb(34, 36, 42); stroke-width: 4px; fill: white; fill-opacity: 0.95;"/></g><rect class="djs-hit djs-hit-all" x="0" y="0" width="36" height="36" style="fill: none; stroke-opacity: 0; stroke: white; stroke-width: 15px;"/><circle cx="18" cy="18" r="24" class="djs-outline" style="fill: none;"/></g></g><g class="djs-group"><g class="djs-element djs-shape" data-element-id="Event_15tqjs7" style="display: block;" transform="matrix(1 0 0 1 412 1322)"><g class="djs-visual"><circle cx="18" cy="18" r="18" style="stroke-linecap: round; stroke-linejoin: round; stroke: rgb(34, 36, 42); stroke-width: 1.5px; fill: white; fill-opacity: 1;"/><circle cx="18" cy="18" r="15" style="stroke-linecap: round; stroke-linejoin: round; stroke: rgb(34, 36, 42); stroke-width: 1.5px; fill: none; fill-opacity: 1;"/><path d="m 7.2,25.991999999999997 0.09350000000000001,-0.025300000000000003 7.3392,-9.610700000000001 7.667000000000001,8.9661 4.7003,-18.2204 -5.8707,11.6501 -7.299600000000001,-9.585400000000002 z" style="fill: white; stroke-linecap: round; stroke-linejoin: round; stroke: rgb(34, 36, 42); stroke-width: 1px;"/></g><rect class="djs-hit djs-hit-all" x="0" y="0" width="36" height="36" style="fill: none; stroke-opacity: 0; stroke: white; stroke-width: 15px;"/><circle cx="18" cy="18" r="23" class="djs-outline" style="fill: none;"/></g></g><g class="djs-group"><g class="djs-element djs-shape" data-element-id="Event_15tqjs7_label" style="display: block;" transform="matrix(1 0 0 1 394 1365)"><g class="djs-visual"><text lineHeight="1.2" class="djs-label" style="font-family: Arial, sans-serif; font-size: 11px; font-weight: normal; fill: rgb(34, 36, 42);"><tspan x="0" y="9.899999999999999">Błąd zapytania</tspan></text></g><rect class="djs-hit djs-hit-all" x="0" y="0" width="73" height="14" style="fill: none; stroke-opacity: 0; stroke: white; stroke-width: 15px;"/><rect x="-5" y="-5" rx="4" width="83" height="24" class="djs-outline" style="fill: none;"/></g></g><g class="djs-group"><g class="djs-element djs-connection" data-element-id="Flow_0jj4xo4" style="display: block;"><g class="djs-visual"><defs><marker id="marker-8pmde9tdk3gfawas474ewrljn" viewBox="0 0 20 20" refX="11" refY="10" markerWidth="10" markerHeight="10" orient="auto"><path d="M 1 5 L 11 10 L 1 15 Z" style="stroke-linecap: round; stroke-linejoin: round; stroke: rgb(34, 36, 42); stroke-width: 1px; fill: rgb(34, 36, 42);"/></marker></defs><path data-corner-radius="5" style="fill: none; stroke-linecap: round; stroke-linejoin: round; stroke: rgb(34, 36, 42); stroke-width: 2px; marker-end: url('#marker-8pmde9tdk3gfawas474ewrljn');" d="M328,960L364,960C366.5,960,369,962.5,369,965L369,1295C369,1297.5,371.5,1300,374,1300L410,1300"/></g><path d="M328,960L369,960L369,1300L410,1300" class="djs-hit djs-hit-stroke" style="fill: none; stroke-opacity: 0; stroke: white; stroke-width: 15px;"/><rect x="323" y="955" rx="4" width="92" height="350" class="djs-outline" style="fill: none;"/></g></g><g class="djs-group"><g class="djs-element djs-connection" data-element-id="Flow_0zq1773" style="display: block;"><g class="djs-visual"><defs><marker id="marker-bmbu135sftxohwcdnezlejvem" viewBox="0 0 20 20" refX="11" refY="10" markerWidth="10" markerHeight="10" orient="auto"><path d="M 1 5 L 11 10 L 1 15 Z" style="stroke-linecap: round; stroke-linejoin: round; stroke: rgb(34, 36, 42); stroke-width: 1px; fill: rgb(34, 36, 42);"/></marker></defs><path data-corner-radius="5" style="fill: none; stroke-linecap: round; stroke-linejoin: round; stroke: rgb(34, 36, 42); stroke-width: 2px; marker-end: url('#marker-bmbu135sftxohwcdnezlejvem');" d="M510,1300L655,1300C657.5,1300,660,1297.5,660,1295L660,1000"/></g><path d="M510,1300L660,1300L660,1000" class="djs-hit djs-hit-stroke" style="fill: none; stroke-opacity: 0; stroke: white; stroke-width: 15px;"/><rect x="505" y="995" rx="4" width="160" height="310" class="djs-outline" style="fill: none;"/></g></g><g class="djs-group"><g class="djs-element djs-connection" data-element-id="Flow_0fhbsj7" style="display: block;"><g class="djs-visual"><defs><marker id="marker-c7puezk5qytj8emh9j7dtoth0" viewBox="0 0 20 20" refX="11" refY="10" markerWidth="10" markerHeight="10" orient="auto"><path d="M 1 5 L 11 10 L 1 15 Z" style="stroke-linecap: round; stroke-linejoin: round; stroke: rgb(34, 36, 42); stroke-width: 1px; fill: rgb(34, 36, 42);"/></marker></defs><path data-corner-radius="5" style="fill: none; stroke-linecap: round; stroke-linejoin: round; stroke: rgb(34, 36, 42); stroke-width: 2px; marker-end: url('#marker-c7puezk5qytj8emh9j7dtoth0');" d="M412,1340L385,1340C382.5,1340,380,1342.5,380,1345L380,1415C380,1417.5,377.5,1420,375,1420L328,1420"/></g><path d="M412,1340L380,1340L380,1420L328,1420" class="djs-hit djs-hit-stroke" style="fill: none; stroke-opacity: 0; stroke: white; stroke-width: 15px;"/><rect x="323" y="1335" rx="4" width="94" height="90" class="djs-outline" style="fill: none;"/></g></g><g class="djs-group"><g class="djs-element djs-connection" data-element-id="Flow_0yg2lsb" style="display: block;"><g class="djs-visual"><defs><marker id="marker-01mar4sfeqqk3lgj7m94fyfp4" viewBox="0 0 20 20" refX="11" refY="10" markerWidth="10" markerHeight="10" orient="auto"><path d="M 1 5 L 11 10 L 1 15 Z" style="stroke-linecap: round; stroke-linejoin: round; stroke: rgb(34, 36, 42); stroke-width: 1px; fill: rgb(34, 36, 42);"/></marker></defs><path data-corner-radius="5" style="fill: none; stroke-linecap: round; stroke-linejoin: round; stroke: rgb(34, 36, 42); stroke-width: 2px; marker-end: url('#marker-01mar4sfeqqk3lgj7m94fyfp4');" d="M710,960L812,960"/></g><path d="M710,960L812,960" class="djs-hit djs-hit-stroke" style="fill: none; stroke-opacity: 0; stroke: white; stroke-width: 15px;"/><rect x="705" y="955" rx="4" width="112" height="10" class="djs-outline" style="fill: none;"/></g></g></g></g><g class="djs-group"><g class="djs-element djs-connection" data-element-id="DataOutputAssociation_19xc3nj" style="display: block;"><g class="djs-visual"><defs><marker id="marker-ass98cn7c4f57epkl5a9sgn6d" viewBox="0 0 20 20" refX="11" refY="10" markerWidth="10" markerHeight="10" orient="auto"><path d="M 1 5 L 11 10 L 1 15" style="fill: none; stroke-linecap: round; stroke-linejoin: round; stroke: rgb(34, 36, 42); stroke-width: 1.5px; stroke-dasharray: 10000, 1;"/></marker></defs><path data-corner-radius="5" style="fill: none; stroke-linecap: round; stroke-linejoin: round; stroke: rgb(34, 36, 42); stroke-width: 2px; marker-end: url('#marker-ass98cn7c4f57epkl5a9sgn6d'); stroke-dasharray: 0, 5;" d="M330,460L330,650C330,652.5,332.5,655,335,655L442,655"/></g><path d="M330,460L330,655L442,655" class="djs-hit djs-hit-stroke" style="fill: none; stroke-opacity: 0; stroke: white; stroke-width: 15px;"/><rect x="325" y="455" rx="4" width="122" height="205" class="djs-outline" style="fill: none;"/></g></g><g class="djs-group"><g class="djs-element djs-connection" data-element-id="DataInputAssociation_1rt33u0" style="display: block;"><g class="djs-visual"><defs><marker id="marker-7rn9tkfbu7dskucelw1pgk4ia" viewBox="0 0 20 20" refX="11" refY="10" markerWidth="10" markerHeight="10" orient="auto"><path d="M 1 5 L 11 10 L 1 15" style="fill: none; stroke-linecap: round; stroke-linejoin: round; stroke: rgb(34, 36, 42); stroke-width: 1.5px; stroke-dasharray: 10000, 1;"/></marker></defs><path data-corner-radius="5" style="fill: none; stroke-linecap: round; stroke-linejoin: round; stroke: rgb(34, 36, 42); stroke-width: 2px; marker-end: url('#marker-7rn9tkfbu7dskucelw1pgk4ia'); stroke-dasharray: 0, 5;" d="M720,815L720,460"/></g><path d="M720,815L720,460" class="djs-hit djs-hit-stroke" style="fill: none; stroke-opacity: 0; stroke: white; stroke-width: 15px;"/><rect x="715" y="455" rx="4" width="10" height="365" class="djs-outline" style="fill: none;"/></g></g><g class="djs-group"><g class="djs-element djs-connection" data-element-id="DataInputAssociation_01jubux" style="display: block;"><g class="djs-visual"><defs><marker id="marker-0wa483d1c3iy5x41x6ob96kpg" viewBox="0 0 20 20" refX="11" refY="10" markerWidth="10" markerHeight="10" orient="auto"><path d="M 1 5 L 11 10 L 1 15" style="fill: none; stroke-linecap: round; stroke-linejoin: round; stroke: rgb(34, 36, 42); stroke-width: 1.5px; stroke-dasharray: 10000, 1;"/></marker></defs><path data-corner-radius="5" style="fill: none; stroke-linecap: round; stroke-linejoin: round; stroke: rgb(34, 36, 42); stroke-width: 2px; marker-end: url('#marker-0wa483d1c3iy5x41x6ob96kpg'); stroke-dasharray: 0, 5;" d="M460,685L460,1260"/></g><path d="M460,685L460,1260" class="djs-hit djs-hit-stroke" style="fill: none; stroke-opacity: 0; stroke: white; stroke-width: 15px;"/><rect x="455" y="680" rx="4" width="10" height="585" class="djs-outline" style="fill: none;"/></g></g><g class="djs-group"><g class="djs-element djs-connection" data-element-id="DataOutputAssociation_033zekf" style="display: block;"><g class="djs-visual"><defs><marker id="marker-bdxbvljpmp2m1po3x5wvvrot9" viewBox="0 0 20 20" refX="11" refY="10" markerWidth="10" markerHeight="10" orient="auto"><path d="M 1 5 L 11 10 L 1 15" style="fill: none; stroke-linecap: round; stroke-linejoin: round; stroke: rgb(34, 36, 42); stroke-width: 1.5px; stroke-dasharray: 10000, 1;"/></marker></defs><path data-corner-radius="5" style="fill: none; stroke-linecap: round; stroke-linejoin: round; stroke: rgb(34, 36, 42); stroke-width: 2px; marker-end: url('#marker-bdxbvljpmp2m1po3x5wvvrot9'); stroke-dasharray: 0, 5;" d="M500,1260L500,1205C500,1202.5,502.5,1200,505,1200L542,1200"/></g><path d="M500,1260L500,1200L542,1200" class="djs-hit djs-hit-stroke" style="fill: none; stroke-opacity: 0; stroke: white; stroke-width: 15px;"/><rect x="495" y="1195" rx="4" width="52" height="70" class="djs-outline" style="fill: none;"/></g></g><g class="djs-group"><g class="djs-element djs-connection" data-element-id="DataInputAssociation_0ix80kx" style="display: block;"><g class="djs-visual"><defs><marker id="marker-8rusqjvcrij6cpwwoq61yv0rm" viewBox="0 0 20 20" refX="11" refY="10" markerWidth="10" markerHeight="10" orient="auto"><path d="M 1 5 L 11 10 L 1 15" style="fill: none; stroke-linecap: round; stroke-linejoin: round; stroke: rgb(34, 36, 42); stroke-width: 1.5px; stroke-dasharray: 10000, 1;"/></marker></defs><path data-corner-radius="5" style="fill: none; stroke-linecap: round; stroke-linejoin: round; stroke: rgb(34, 36, 42); stroke-width: 2px; marker-end: url('#marker-8rusqjvcrij6cpwwoq61yv0rm'); stroke-dasharray: 0, 5;" d="M560,1175L560,963C560,960.5,562.49950014995,958.049990002999,564.9990002999,958.099980005998L610,959"/></g><path d="M560,1175L560,958L610,959" class="djs-hit djs-hit-stroke" style="fill: none; stroke-opacity: 0; stroke: white; stroke-width: 15px;"/><rect x="555" y="953" rx="4" width="60" height="227" class="djs-outline" style="fill: none;"/></g></g><g class="djs-group"><g class="djs-element djs-connection" data-element-id="DataOutputAssociation_1bzb5he" style="display: block;"><g class="djs-visual"><defs><marker id="marker-aqi3oubmnhbwu31305p7z9r1n" viewBox="0 0 20 20" refX="11" refY="10" markerWidth="10" markerHeight="10" orient="auto"><path d="M 1 5 L 11 10 L 1 15" style="fill: none; stroke-linecap: round; stroke-linejoin: round; stroke: rgb(34, 36, 42); stroke-width: 1.5px; stroke-dasharray: 10000, 1;"/></marker></defs><path data-corner-radius="5" style="fill: none; stroke-linecap: round; stroke-linejoin: round; stroke: rgb(34, 36, 42); stroke-width: 2px; marker-end: url('#marker-aqi3oubmnhbwu31305p7z9r1n'); stroke-dasharray: 0, 5;" d="M680,920L680,845C680,842.5,682.5,840,685,840L702,840"/></g><path d="M680,920L680,840L702,840" class="djs-hit djs-hit-stroke" style="fill: none; stroke-opacity: 0; stroke: white; stroke-width: 15px;"/><rect x="675" y="835" rx="4" width="32" height="90" class="djs-outline" style="fill: none;"/></g></g><g class="djs-group"><g class="djs-element djs-connection" data-element-id="Flow_0q41tbg" style="display: block;"><g class="djs-visual"><defs><marker id="marker-2jjq6c7bqgu8cvlnuts2akodp" viewBox="0 0 20 20" refX="8.5" refY="5" markerWidth="20" markerHeight="20" orient="auto"><path d="m 1 5 l 0 -3 l 7 3 l -7 3 z" style="stroke-linecap: round; stroke-linejoin: round; stroke: rgb(34, 36, 42); stroke-width: 1px; fill: white; stroke-dasharray: 10000, 1;"/></marker><marker id="marker-cqykusooj2xkzr6abm63890se" viewBox="0 0 20 20" refX="6" refY="6" markerWidth="20" markerHeight="20" orient="auto"><circle cx="6" cy="6" r="3.5" style="stroke-linecap: round; stroke-linejoin: round; stroke: rgb(34, 36, 42); stroke-width: 1px; fill: white; stroke-dasharray: 10000, 1;"/></marker></defs><path data-corner-radius="5" style="fill: none; stroke-linecap: round; stroke-linejoin: round; stroke: rgb(34, 36, 42); stroke-width: 1.5px; marker-end: url('#marker-2jjq6c7bqgu8cvlnuts2akodp'); marker-start: url('#marker-cqykusooj2xkzr6abm63890se'); stroke-dasharray: 10, 11;" d="M310,460L310,942"/></g><path d="M310,460L310,942" class="djs-hit djs-hit-stroke" style="fill: none; stroke-opacity: 0; stroke: white; stroke-width: 15px;"/><rect x="305" y="455" rx="4" width="10" height="492" class="djs-outline" style="fill: none;"/></g></g><g class="djs-group"><g class="djs-element djs-connection" data-element-id="Flow_1ynkp8j" style="display: block;"><g class="djs-visual"><defs><marker id="marker-7kzcwwmez8mh5mggra4qtbmnu" viewBox="0 0 20 20" refX="8.5" refY="5" markerWidth="20" markerHeight="20" orient="auto"><path d="m 1 5 l 0 -3 l 7 3 l -7 3 z" style="stroke-linecap: round; stroke-linejoin: round; stroke: rgb(34, 36, 42); stroke-width: 1px; fill: white; stroke-dasharray: 10000, 1;"/></marker><marker id="marker-804cuk41elvv1b4v2w5oq3gda" viewBox="0 0 20 20" refX="6" refY="6" markerWidth="20" markerHeight="20" orient="auto"><circle cx="6" cy="6" r="3.5" style="stroke-linecap: round; stroke-linejoin: round; stroke: rgb(34, 36, 42); stroke-width: 1px; fill: white; stroke-dasharray: 10000, 1;"/></marker></defs><path data-corner-radius="5" style="fill: none; stroke-linecap: round; stroke-linejoin: round; stroke: rgb(34, 36, 42); stroke-width: 1.5px; marker-end: url('#marker-7kzcwwmez8mh5mggra4qtbmnu'); marker-start: url('#marker-804cuk41elvv1b4v2w5oq3gda'); stroke-dasharray: 10, 11;" d="M660,920L660,684C660,681.5,657.5,679,655,679L535,679C532.5,679,530,676.5,530,674L530,438"/></g><path d="M660,920L660,679L530,679L530,438" class="djs-hit djs-hit-stroke" style="fill: none; stroke-opacity: 0; stroke: white; stroke-width: 15px;"/><rect x="525" y="433" rx="4" width="140" height="492" class="djs-outline" style="fill: none;"/></g></g><g class="djs-group"><g class="djs-element djs-connection" data-element-id="DataInputAssociation_1scl149" style="display: block;"><g class="djs-visual"><defs><marker id="marker-1z4c2fl4wodpkrct0g9vwtldh" viewBox="0 0 20 20" refX="11" refY="10" markerWidth="10" markerHeight="10" orient="auto"><path d="M 1 5 L 11 10 L 1 15" style="fill: none; stroke-linecap: round; stroke-linejoin: round; stroke: rgb(34, 36, 42); stroke-width: 1.5px; stroke-dasharray: 10000, 1;"/></marker></defs><path data-corner-radius="5" style="fill: none; stroke-linecap: round; stroke-linejoin: round; stroke: rgb(34, 36, 42); stroke-width: 2px; marker-end: url('#marker-1z4c2fl4wodpkrct0g9vwtldh'); stroke-dasharray: 0, 5;" d="M565,1410L485,1410C482.5,1410,480,1407.5,480,1405L480,1340"/></g><path d="M565,1410L480,1410L480,1340" class="djs-hit djs-hit-stroke" style="fill: none; stroke-opacity: 0; stroke: white; stroke-width: 15px;"/><rect x="475" y="1335" rx="4" width="95" height="80" class="djs-outline" style="fill: none;"/></g></g></svg>